<svg version="1.1" id="Layer_1" xmlns="http://www.w3.org/2000/svg" xmlns:xlink="http://www.w3.org/1999/xlink" x="0px" y="0px"
	 width="100%" viewBox="0 0 200 200" enable-background="new 0 0 200 200" xml:space="preserve">
<path fill="#FEFEFE" opacity="1.000000" stroke="none" 
	d="
M129.000000,201.000000 
	C86.000000,201.000000 43.500004,201.000000 1.000006,201.000000 
	C1.000004,134.333344 1.000004,67.666679 1.000002,1.000015 
	C67.666656,1.000010 134.333313,1.000010 200.999969,1.000005 
	C200.999985,67.666649 200.999985,134.333298 201.000000,200.999969 
	C177.166672,201.000000 153.333328,201.000000 129.000000,201.000000 
M62.029980,64.034416 
	C62.029980,64.034416 62.134743,64.093254 61.602917,64.261940 
	C61.435928,64.580658 61.268944,64.899368 60.931805,65.756866 
	C60.545574,66.151337 60.159340,66.545815 59.394932,67.152534 
	C59.160255,67.343979 59.015266,67.588593 58.837227,68.374138 
	C58.604431,68.603088 58.371635,68.832039 57.615326,69.227654 
	C57.454906,69.542038 57.294487,69.856430 57.151985,70.044029 
	C57.151985,70.044029 57.191898,70.165695 56.416557,70.126732 
	C55.701859,71.818001 54.987160,73.509262 54.226219,75.247810 
	C54.226219,75.247810 54.285908,75.276268 53.600273,75.165977 
	C53.387028,76.109039 53.173782,77.052094 52.936539,78.642487 
	C52.593258,79.423996 52.249981,80.205498 51.153847,81.156342 
	C50.845074,82.900558 50.536304,84.644783 50.283779,86.732208 
	C50.283779,86.732208 50.123589,87.040909 49.371590,87.135780 
	C49.261703,89.096008 49.151817,91.056244 49.109440,93.911995 
	C49.077042,96.605171 49.044647,99.298355 48.436287,102.520844 
	C47.515884,107.300217 48.673191,111.466812 52.294628,115.227341 
	C52.294628,115.227341 52.269981,115.551834 52.103489,116.383934 
	C52.800030,117.536133 53.496574,118.688339 54.155834,119.975685 
	C54.155834,119.975685 54.146320,119.835815 54.183949,120.329247 
	C54.312393,120.656075 54.540855,120.881516 55.080303,121.345963 
	C55.080303,121.345963 55.148083,121.740654 55.051533,122.498924 
	C55.731133,123.310936 56.410728,124.122948 57.016106,125.006363 
	C57.016106,125.006363 57.071968,124.920364 57.016441,125.658821 
	C57.740345,126.386116 58.464249,127.113419 59.136517,127.964226 
	C59.136517,127.964226 59.131794,127.830444 59.254177,128.369385 
	C59.558323,128.553619 59.862469,128.737839 60.586662,129.148026 
	C60.827114,129.377869 60.966610,129.657974 61.166508,130.458878 
	C61.356148,130.755112 61.623096,130.939392 62.432037,131.222015 
	C62.613827,131.502090 62.795616,131.782181 63.156769,132.504166 
	C63.345966,132.781708 63.604939,132.954956 64.473961,133.245667 
	C64.986565,133.821350 65.499168,134.397034 66.214790,135.450226 
	C66.511154,135.609970 66.807510,135.769714 67.019997,135.982010 
	C67.019997,135.982010 67.065231,135.893982 67.271248,136.428543 
	C67.610870,136.572311 67.950500,136.716080 68.812660,136.985519 
	C69.206924,137.329834 69.601196,137.674164 70.229317,138.493378 
	C70.540863,138.637695 70.852417,138.782013 71.710960,139.024277 
	C72.143600,139.346069 72.576241,139.667877 73.119408,140.725510 
	C74.195198,141.082214 75.270988,141.438919 76.700783,141.856064 
	C76.700783,141.856064 76.980324,142.081497 77.037140,142.648453 
	C77.686066,142.788361 78.334984,142.928284 79.630760,143.095581 
	C80.409348,143.447372 81.187935,143.799149 82.041992,144.719315 
	C82.701790,144.797104 83.361580,144.874908 84.674393,144.973587 
	C85.098381,145.068771 85.522369,145.163971 86.146980,145.966354 
	C87.250465,146.614700 88.337456,147.788300 89.460182,147.823547 
	C95.401764,148.010056 101.393105,148.316666 107.281349,147.725922 
	C109.941437,147.459061 112.402573,145.209061 115.173882,143.669998 
	C115.173882,143.669998 115.463684,143.673325 116.300034,143.869598 
	C117.519318,143.226349 118.738602,142.583084 120.006882,141.985443 
	C120.006882,141.985443 119.945251,141.960724 120.379692,141.878906 
	C120.661453,141.759689 120.876999,141.566589 121.494583,141.108643 
	C121.658188,141.067993 121.821785,141.027344 122.430801,140.850967 
	C122.711464,140.692108 122.915291,140.464447 123.400177,139.706757 
	C123.932243,139.491867 124.464310,139.276993 125.397522,139.532730 
	C130.243103,136.695023 135.222061,133.991714 137.279144,127.418518 
	C139.680939,123.543053 142.176910,119.719048 144.359497,115.723839 
	C144.618149,115.250374 143.162140,113.840187 142.742844,112.225800 
	C142.907700,111.802055 143.072571,111.378304 143.625687,110.597832 
	C143.705475,110.258873 143.785278,109.919907 143.910233,108.906311 
	C144.103577,107.590637 144.296921,106.274971 144.828720,104.087463 
	C146.333755,92.695877 143.769867,82.332047 136.993713,72.316704 
	C135.991348,70.539139 134.988983,68.761574 134.659500,66.892052 
	C135.446075,65.974655 136.232635,65.057251 137.016647,64.142838 
	C125.148270,54.084843 118.491676,50.383999 109.241623,48.980186 
	C108.481461,48.977997 107.721298,48.975807 106.473595,48.946861 
	C106.473595,48.946861 105.988838,49.005482 105.316330,49.058094 
	C104.873726,48.984825 104.431122,48.911556 103.471237,48.351074 
	C101.656288,48.477825 99.841339,48.604576 97.346939,48.840328 
	C96.890907,48.805275 96.434883,48.770222 95.508324,48.310165 
	C94.342033,48.484043 93.175743,48.657921 91.357666,48.998493 
	C90.911026,49.016701 90.464386,49.034908 89.545921,48.482304 
	C88.070389,49.069267 86.594856,49.656227 84.602043,50.642986 
	C83.745621,50.797966 82.889198,50.952946 81.728859,50.615402 
	C81.145493,51.046078 80.562126,51.476753 79.654495,52.110577 
	C79.654495,52.110577 79.275124,52.160431 78.461029,52.053905 
	C77.347733,52.781799 76.234444,53.509697 74.770325,54.649666 
	C74.256699,54.802422 73.743073,54.955177 72.691025,55.177425 
	C72.456909,55.439888 72.222801,55.702347 71.666771,56.418228 
	C71.161728,56.633732 70.656693,56.849239 69.628998,57.185459 
	C69.426056,57.467587 69.223106,57.749714 69.000717,57.999180 
	C69.000717,57.999180 69.028870,58.025455 68.285301,58.014061 
	C67.572441,58.767612 66.859581,59.521168 65.945793,60.660217 
	C65.749184,60.889324 65.503014,61.034229 64.666649,61.226444 
	C64.475616,61.529484 64.284576,61.832523 64.035454,62.031414 
	C64.035454,62.031414 64.135010,62.097073 63.618793,62.231712 
	C63.436520,62.523975 63.254246,62.816238 63.020046,63.019821 
	C63.020046,63.019821 63.108601,63.071957 62.600697,63.233608 
	C62.432865,63.533741 62.265034,63.833874 62.029980,64.034416 
M120.492050,157.998688 
	C100.268478,157.998688 80.044899,157.998688 59.821327,157.998688 
	C59.822941,158.228546 59.824554,158.458420 59.826168,158.688278 
	C84.667686,158.688278 109.509201,158.688278 134.350708,158.688278 
	C134.353577,158.458710 134.356445,158.229141 134.359329,157.999573 
	C130.068665,157.999573 125.777992,157.999573 120.492050,157.998688 
z"/>
<path fill="#F7BD2C" opacity="1.000000" stroke="none" 
	d="
M51.906700,80.987007 
	C52.249981,80.205498 52.593258,79.423996 53.202145,78.129486 
	C53.740467,76.836411 54.013187,76.056343 54.285904,75.276268 
	C54.285908,75.276268 54.226219,75.247810 54.522675,75.046173 
	C55.610050,73.284920 56.400974,71.725311 57.191898,70.165695 
	C57.191898,70.165695 57.151985,70.044029 57.395157,70.014870 
	C57.805168,69.677475 57.972008,69.369232 58.138840,69.060997 
	C58.371635,68.832039 58.604431,68.603088 59.120998,68.061264 
	C59.696041,67.555847 59.818821,67.286476 59.773109,66.940285 
	C60.159340,66.545815 60.545574,66.151337 61.266090,65.380173 
	C61.778496,64.700066 61.956615,64.396660 62.134739,64.093254 
	C62.134743,64.093254 62.029980,64.034416 62.314674,64.001343 
	C62.769115,63.669498 62.938858,63.370728 63.108604,63.071960 
	C63.108601,63.071957 63.020046,63.019821 63.299622,62.988800 
	C63.764469,62.670872 63.949738,62.383972 64.135010,62.097073 
	C64.135010,62.097073 64.035454,62.031414 64.323311,62.002785 
	C64.809868,61.681080 65.008575,61.388004 65.207283,61.094933 
	C65.503014,61.034229 65.749184,60.889324 66.349854,60.378719 
	C67.512222,59.406631 68.270546,58.716042 69.028870,58.025452 
	C69.028870,58.025455 69.000717,57.999180 69.262909,57.940262 
	C69.733948,57.609142 69.942795,57.336945 70.151649,57.064747 
	C70.656693,56.849239 71.161728,56.633732 72.094986,56.153900 
	C72.758621,55.629021 72.994034,55.368473 73.229446,55.107925 
	C73.743073,54.955177 74.256699,54.802422 75.277122,54.381531 
	C76.947655,53.462406 78.111389,52.811420 79.275124,52.160431 
	C79.275124,52.160431 79.654495,52.110577 80.113525,52.050011 
	C81.059296,51.695606 81.546036,51.401768 82.032776,51.107925 
	C82.889198,50.952946 83.745621,50.797966 85.234062,50.430428 
	C87.249969,49.829617 88.633858,49.441364 90.017746,49.053116 
	C90.464386,49.034908 90.911026,49.016701 92.076973,48.995045 
	C93.857140,48.906120 94.917992,48.820641 95.978851,48.735165 
	C96.434883,48.770222 96.890907,48.805275 98.103096,48.885258 
	C100.569008,48.899555 102.278763,48.868919 103.988518,48.838287 
	C104.431122,48.911556 104.873726,48.984825 105.763344,49.208542 
	C106.210358,49.358994 106.591591,49.525719 106.591591,49.525719 
	C106.591591,49.525719 106.995415,49.425278 107.336540,49.613720 
	C108.449631,49.880692 109.221596,49.959225 110.302963,50.219330 
	C113.651642,51.664070 116.690918,52.927242 119.730194,54.190414 
	C119.617455,54.705059 119.504723,55.219700 119.391991,55.734344 
	C111.251534,54.206177 103.108200,51.894562 94.657898,55.005997 
	C93.905510,55.076130 93.480103,55.166061 92.691925,55.221169 
	C89.552040,56.459282 86.774933,57.732220 83.703690,59.028008 
	C82.943039,59.379181 82.476532,59.707500 81.744331,60.077400 
	C81.254662,60.387226 81.030685,60.655468 80.530258,60.965340 
	C79.837021,61.343292 79.420250,61.679619 78.747498,62.075127 
	C78.290451,62.408955 78.089378,62.683601 77.670532,63.020721 
	C77.162666,63.225590 76.974533,63.452507 76.559067,63.856209 
	C74.107315,66.260010 71.984840,68.571541 69.887268,70.946342 
	C69.912170,71.009605 69.883896,70.878975 69.581673,71.022530 
	C68.148399,73.091812 67.017349,75.017540 65.655296,77.125450 
	C65.260643,77.864273 65.097008,78.420929 64.684998,79.139114 
	C64.272682,79.854828 64.108734,80.408997 63.967884,80.984421 
	C63.990986,81.005676 63.958969,80.953110 63.671654,81.180313 
	C62.829903,83.594864 62.275471,85.782204 61.650475,88.093208 
	C61.579918,88.216873 61.724339,88.462280 61.515820,88.662987 
	C61.270344,89.237358 61.233383,89.611031 61.116871,90.312805 
	C61.046089,91.089020 61.054859,91.537125 60.884476,92.342514 
	C60.818371,95.796127 60.931419,98.892471 61.004890,102.326721 
	C61.029808,103.112167 61.094303,103.559700 61.085148,104.402283 
	C62.678246,114.295074 66.362961,122.715828 73.979080,129.028259 
	C74.002579,129.005585 73.944580,129.034592 74.019844,129.284943 
	C74.385384,129.708710 74.675659,129.882126 74.980469,130.026642 
	C74.995003,129.997742 74.949730,130.044540 75.084274,130.354324 
	C81.299263,135.764267 87.852921,139.889938 96.361618,140.838730 
	C97.488396,140.947083 98.245224,140.968140 99.321533,141.227356 
	C103.089287,141.293091 106.537552,141.120682 110.322830,140.984375 
	C111.104950,140.951309 111.550049,140.882111 112.250969,140.863037 
	C112.669174,140.851257 112.831558,140.789368 113.281174,140.761292 
	C113.953659,140.788193 114.338913,140.781311 115.004135,140.853271 
	C115.517387,141.615433 115.750687,142.298737 115.832489,143.138733 
	C115.680992,143.295425 115.463684,143.673325 115.463684,143.673325 
	C115.463684,143.673325 115.173882,143.669998 114.663101,143.784637 
	C104.878571,147.012360 95.439384,146.694275 85.946350,145.259171 
	C85.522369,145.163971 85.098381,145.068771 84.172737,144.721863 
	C83.102890,144.363739 82.534706,144.257339 81.966522,144.150940 
	C81.187935,143.799149 80.409348,143.447372 79.133835,142.840103 
	C78.084717,142.416916 77.532524,142.249207 76.980324,142.081497 
	C76.980324,142.081497 76.700783,141.856064 76.317596,141.570496 
	C74.959236,140.853180 73.984055,140.421417 73.008881,139.989670 
	C72.576241,139.667877 72.143600,139.346069 71.324394,138.733459 
	C70.623703,138.301270 70.309586,138.159882 69.995468,138.018478 
	C69.601196,137.674164 69.206924,137.329834 68.418709,136.681702 
	C67.704918,136.216583 67.385071,136.055283 67.065231,135.893982 
	C67.065231,135.893982 67.019997,135.982010 66.976868,135.705475 
	C66.626419,135.276871 66.319099,135.124802 66.011772,134.972717 
	C65.499168,134.397034 64.986565,133.821350 64.138527,132.896088 
	C63.612705,132.240463 63.337475,132.079041 62.977409,132.062256 
	C62.795616,131.782181 62.613827,131.502090 62.129730,130.874664 
	C61.553333,130.347656 61.279240,130.168015 61.005150,129.988358 
	C60.966610,129.657974 60.827114,129.377869 60.286934,128.783478 
	C59.702068,128.222763 59.416931,128.026596 59.131794,127.830444 
	C59.131794,127.830444 59.136517,127.964226 59.114136,127.591873 
	C58.418491,126.453133 57.745232,125.686745 57.071968,124.920364 
	C57.071968,124.920364 57.016106,125.006363 57.020363,124.649857 
	C56.399113,123.442459 55.773598,122.591553 55.148083,121.740654 
	C55.148083,121.740654 55.080303,121.345963 54.973606,120.920105 
	C54.626713,120.274765 54.386517,120.055290 54.146320,119.835815 
	C54.146320,119.835815 54.155834,119.975685 54.138077,119.573776 
	C53.503544,117.965195 52.886761,116.758514 52.269981,115.551834 
	C52.269981,115.551834 52.294628,115.227341 52.189751,114.697037 
	C51.060669,110.108330 50.036461,106.049927 49.012253,101.991531 
	C49.044647,99.298355 49.077042,96.605171 49.312569,93.168777 
	C49.718327,90.630669 49.920956,88.835793 50.123589,87.040909 
	C50.123589,87.040909 50.283779,86.732208 50.485199,86.277405 
	C51.093307,84.210739 51.500004,82.598869 51.906700,80.987007 
z"/>
<path fill="#5392C4" opacity="1.000000" stroke="none" 
	d="
M136.985107,73.034355 
	C143.769867,82.332047 146.333755,92.695877 144.322510,104.390640 
	C143.007233,100.798019 142.198181,96.902206 141.237030,92.762115 
	C140.999130,92.346260 140.913315,92.174690 140.855774,91.628906 
	C137.933105,85.821724 134.982162,80.388748 132.015381,74.977402 
	C131.999542,74.999023 132.048737,74.977791 131.962616,74.732300 
	C131.595047,74.299866 131.313614,74.112923 131.019974,73.959076 
	C131.007767,73.992172 131.073669,73.966988 130.984283,73.720787 
	C130.607407,73.291130 130.319916,73.107674 130.020996,72.959938 
	C130.009537,72.995659 130.069778,72.950935 129.930573,72.642883 
	C125.206100,69.539490 120.620827,66.744148 116.015900,63.971607 
	C115.996246,63.994404 116.046646,63.962887 115.915527,63.690544 
	C115.208786,63.354454 114.633171,63.290699 113.703438,63.138786 
	C112.897522,62.892399 112.445724,62.734165 111.928833,62.296783 
	C110.919907,61.950550 109.976082,61.883461 108.643379,61.827656 
	C106.181999,61.711990 104.109482,61.585045 101.731483,61.355602 
	C101.001274,61.194485 100.576561,61.135860 99.878769,61.038361 
	C99.401001,60.334606 99.196304,59.669731 99.295975,58.912331 
	C100.226410,58.828056 100.852501,58.836304 101.980324,58.886662 
	C105.148277,58.904057 107.814491,58.879341 110.586029,58.768677 
	C110.691360,58.682728 110.938477,58.796116 111.176529,59.112267 
	C112.977859,59.583084 114.541138,59.737755 116.058304,59.910789 
	C116.012192,59.929157 116.056572,59.840366 116.256081,60.151897 
	C117.417168,60.596165 118.378738,60.728901 119.513771,60.865818 
	C119.687225,60.869999 119.993469,61.033199 120.177589,61.275543 
	C120.937691,61.665249 121.513680,61.812618 122.371536,61.981827 
	C123.111351,62.305408 123.569298,62.607155 124.168579,63.228279 
	C125.317780,63.984009 126.325630,64.420364 127.652596,64.950363 
	C130.976166,67.707458 133.980637,70.370903 136.985107,73.034355 
z"/>
<path fill="#ECF9FC" opacity="1.000000" stroke="none" 
	d="
M124.027237,62.908901 
	C123.569298,62.607155 123.111351,62.305408 122.169952,61.758369 
	C121.122154,61.353119 120.557816,61.193157 119.993469,61.033199 
	C119.993469,61.033199 119.687225,60.869999 119.261177,60.610176 
	C117.908943,60.180359 116.982758,60.010361 116.056572,59.840366 
	C116.056572,59.840366 116.012192,59.929157 115.784607,59.643002 
	C114.017509,59.169933 112.477997,58.983025 110.938477,58.796116 
	C110.938477,58.796116 110.691360,58.682728 110.228432,58.525055 
	C107.003197,58.526436 104.240891,58.685497 101.478584,58.844555 
	C100.852501,58.836304 100.226410,58.828056 98.931641,58.882301 
	C97.220657,59.170055 96.178360,59.395317 94.473869,59.763691 
	C95.656700,60.828922 96.330566,61.435783 96.922943,62.412941 
	C96.016113,63.184433 95.201828,63.610546 94.363525,63.982544 
	C90.578468,65.662186 86.786606,67.326500 82.632881,68.989082 
	C81.817215,67.871147 80.669823,66.221336 81.038261,65.745674 
	C82.431862,63.946541 84.317261,62.528343 86.332733,60.804951 
	C88.084419,59.749207 89.612305,58.969582 90.927666,57.922886 
	C91.794922,57.232773 92.356339,56.158340 93.054695,55.255989 
	C93.480103,55.166061 93.905510,55.076130 94.956711,55.299286 
	C98.385078,55.737690 101.217209,56.181984 103.984428,55.925613 
	C110.935745,55.281597 117.303429,57.286095 123.362648,60.164974 
	C127.132835,61.956280 130.460388,64.679207 133.986603,66.984016 
	C134.988983,68.761574 135.991348,70.539139 136.989410,72.675529 
	C133.980637,70.370903 130.976166,67.707458 127.455742,64.683136 
	C125.968933,63.851143 124.998085,63.380024 124.027237,62.908901 
z"/>
<path fill="#FDF8DD" opacity="1.000000" stroke="none" 
	d="
M134.323059,66.938034 
	C130.460388,64.679207 127.132835,61.956280 123.362648,60.164974 
	C117.303429,57.286095 110.935745,55.281597 103.984428,55.925613 
	C101.217209,56.181984 98.385078,55.737690 95.283684,55.319084 
	C103.108200,51.894562 111.251534,54.206177 119.391991,55.734344 
	C119.504723,55.219700 119.617455,54.705059 119.730194,54.190414 
	C116.690918,52.927242 113.651642,51.664070 110.305954,49.960007 
	C110.000252,49.346363 110.000977,49.173611 110.001709,49.000854 
	C118.491676,50.383999 125.148270,54.084843 137.016647,64.142838 
	C136.232635,65.057251 135.446075,65.974655 134.323059,66.938034 
z"/>
<path fill="#FAFBFB" opacity="1.000000" stroke="none" 
	d="
M142.500961,112.864204 
	C143.162140,113.840187 144.618149,115.250374 144.359497,115.723839 
	C142.176910,119.719048 139.680939,123.543053 136.785553,127.752541 
	C135.195969,128.395599 134.099976,128.704636 133.001648,128.604004 
	C132.666260,125.792961 132.333221,123.391579 132.232773,120.887657 
	C132.623703,120.743523 132.847656,120.748703 132.920639,120.646286 
	C132.984726,120.556358 132.899582,120.338715 132.846176,120.189713 
	C132.225815,118.458672 131.598984,116.729958 131.385742,115.000496 
	C134.730331,113.701279 137.663040,112.402199 140.540253,111.477081 
	C139.810150,113.949280 139.135544,116.047516 138.460938,118.145744 
	C138.683487,118.254883 138.906021,118.364021 139.128555,118.473167 
	C140.252686,116.603508 141.376831,114.733856 142.500961,112.864204 
z"/>
<path fill="#3D3D3D" opacity="1.000000" stroke="none" 
	d="
M120.989685,157.999130 
	C125.777992,157.999573 130.068665,157.999573 134.359329,157.999573 
	C134.356445,158.229141 134.353577,158.458710 134.350708,158.688278 
	C109.509201,158.688278 84.667686,158.688278 59.826168,158.688278 
	C59.824554,158.458420 59.822941,158.228546 59.821327,157.998688 
	C80.044899,157.998688 100.268478,157.998688 120.989685,157.999130 
z"/>
<path fill="#FDF8DD" opacity="1.000000" stroke="none" 
	d="
M133.003998,129.013687 
	C134.099976,128.704636 135.195969,128.395599 136.634369,128.063248 
	C135.222061,133.991714 130.243103,136.695023 125.303215,139.018173 
	C124.788460,137.927353 124.368011,137.351089 124.013779,136.440842 
	C127.054657,133.742477 130.029327,131.378082 133.003998,129.013687 
z"/>
<path fill="#FEFAD7" opacity="1.000000" stroke="none" 
	d="
M86.046661,145.612762 
	C95.439384,146.694275 104.878571,147.012360 114.553146,143.879044 
	C112.402573,145.209061 109.941437,147.459061 107.281349,147.725922 
	C101.393105,148.316666 95.401764,148.010056 89.460182,147.823547 
	C88.337456,147.788300 87.250465,146.614700 86.046661,145.612762 
z"/>
<path fill="#6796BA" opacity="1.000000" stroke="none" 
	d="
M142.621902,112.544998 
	C141.376831,114.733856 140.252686,116.603508 139.128555,118.473167 
	C138.906021,118.364021 138.683487,118.254883 138.460938,118.145744 
	C139.135544,116.047516 139.810150,113.949280 140.670471,111.152725 
	C141.092575,109.034157 141.328979,107.613907 141.696838,105.815872 
	C141.724838,102.224518 141.621368,99.010963 141.510651,95.445015 
	C141.465302,94.397217 141.427216,93.701805 141.389130,93.006393 
	C142.198181,96.902206 143.007233,100.798019 144.153259,104.826561 
	C144.296921,106.274971 144.103577,107.590637 143.677307,109.414673 
	C143.375397,110.266876 143.306412,110.610718 143.237427,110.954559 
	C143.072571,111.378304 142.907700,111.802055 142.621902,112.544998 
z"/>
<path fill="#FEFAD7" opacity="1.000000" stroke="none" 
	d="
M48.724270,102.256187 
	C50.036461,106.049927 51.060669,110.108330 52.095257,114.564568 
	C48.673191,111.466812 47.515884,107.300217 48.724270,102.256187 
z"/>
<path fill="#E6C15E" opacity="1.000000" stroke="none" 
	d="
M123.947563,136.774826 
	C124.368011,137.351089 124.788460,137.927353 125.102646,138.782867 
	C124.464310,139.276993 123.932243,139.491867 122.981552,139.975403 
	C122.244133,140.393372 122.051613,140.640930 121.985374,140.986710 
	C121.821785,141.027344 121.658188,141.067993 121.025124,141.200546 
	C120.223503,141.397598 120.020027,141.620346 119.945251,141.960724 
	C119.945251,141.960724 120.006882,141.985443 119.637909,141.996735 
	C118.173950,142.332687 117.078964,142.657349 115.983978,142.982025 
	C115.750687,142.298737 115.517387,141.615433 115.069260,140.661774 
	C114.854424,140.391403 115.004822,140.014908 115.341789,140.020615 
	C116.454369,139.671646 117.229980,139.316971 118.344086,138.948746 
	C119.122353,138.835388 119.562141,138.735596 120.229446,138.649506 
	C120.774193,138.561859 120.979988,138.351471 121.311928,137.976410 
	C121.549492,137.920807 121.994179,137.719864 122.226227,137.712952 
	C122.765892,137.575180 122.965355,137.348923 123.286644,136.989746 
	C123.516624,136.952240 123.947563,136.774826 123.947563,136.774826 
z"/>
<path fill="#FEFAD7" opacity="1.000000" stroke="none" 
	d="
M49.747589,87.088348 
	C49.920956,88.835793 49.718327,90.630669 49.278816,92.721008 
	C49.151817,91.056244 49.261703,89.096008 49.747589,87.088348 
z"/>
<path fill="#FEFAD7" opacity="1.000000" stroke="none" 
	d="
M89.781830,48.767708 
	C88.633858,49.441364 87.249969,49.829617 85.492706,50.230530 
	C86.594856,49.656227 88.070389,49.069267 89.781830,48.767708 
z"/>
<path fill="#FEFAD7" opacity="1.000000" stroke="none" 
	d="
M56.804230,70.146210 
	C56.400974,71.725311 55.610050,73.284920 54.545792,75.022537 
	C54.987160,73.509262 55.701859,71.818001 56.804230,70.146210 
z"/>
<path fill="#FEFAD7" opacity="1.000000" stroke="none" 
	d="
M51.530273,81.071671 
	C51.500004,82.598869 51.093307,84.210739 50.457073,86.105804 
	C50.536304,84.644783 50.845074,82.900558 51.530273,81.071671 
z"/>
<path fill="#FEFAD7" opacity="1.000000" stroke="none" 
	d="
M78.868073,52.107170 
	C78.111389,52.811420 76.947655,53.462406 75.452530,54.175491 
	C76.234444,53.509697 77.347733,52.781799 78.868073,52.107170 
z"/>
<path fill="#FEFAD7" opacity="1.000000" stroke="none" 
	d="
M53.943089,75.221123 
	C54.013187,76.056343 53.740467,76.836411 53.214142,77.805817 
	C53.173782,77.052094 53.387028,76.109039 53.943089,75.221123 
z"/>
<path fill="#FEFAD7" opacity="1.000000" stroke="none" 
	d="
M52.186737,115.967880 
	C52.886761,116.758514 53.503544,117.965195 54.156723,119.506210 
	C53.496574,118.688339 52.800030,117.536133 52.186737,115.967880 
z"/>
<path fill="#FEFAD7" opacity="1.000000" stroke="none" 
	d="
M115.832489,143.138718 
	C117.078964,142.657349 118.173950,142.332687 119.613419,141.973923 
	C118.738602,142.583084 117.519318,143.226349 115.881859,143.771454 
	C115.463684,143.673325 115.680992,143.295425 115.832489,143.138718 
z"/>
<path fill="#FEFAD7" opacity="1.000000" stroke="none" 
	d="
M103.729874,48.594681 
	C102.278763,48.868919 100.569008,48.899555 98.442825,48.830757 
	C99.841339,48.604576 101.656288,48.477825 103.729874,48.594681 
z"/>
<path fill="#FEFAD7" opacity="1.000000" stroke="none" 
	d="
M73.064148,140.357590 
	C73.984055,140.421417 74.959236,140.853180 76.140594,141.540283 
	C75.270988,141.438919 74.195198,141.082214 73.064148,140.357590 
z"/>
<path fill="#FEFAD7" opacity="1.000000" stroke="none" 
	d="
M55.099808,122.119789 
	C55.773598,122.591553 56.399113,123.442459 57.057472,124.614159 
	C56.410728,124.122948 55.731133,123.310936 55.099808,122.119789 
z"/>
<path fill="#FEFAD7" opacity="1.000000" stroke="none" 
	d="
M57.044205,125.289597 
	C57.745232,125.686745 58.418491,126.453133 59.139954,127.530121 
	C58.464249,127.113419 57.740345,126.386116 57.044205,125.289597 
z"/>
<path fill="#FEFAD7" opacity="1.000000" stroke="none" 
	d="
M68.657089,58.019756 
	C68.270546,58.716042 67.512222,59.406631 66.450310,60.185974 
	C66.859581,59.521168 67.572441,58.767612 68.657089,58.019756 
z"/>
<path fill="#FEFAD7" opacity="1.000000" stroke="none" 
	d="
M81.880814,50.861664 
	C81.546036,51.401768 81.059296,51.695606 80.275658,51.948441 
	C80.562126,51.476753 81.145493,51.046078 81.880814,50.861664 
z"/>
<path fill="#FEFAD7" opacity="1.000000" stroke="none" 
	d="
M77.008728,142.364975 
	C77.532524,142.249207 78.084717,142.416916 78.810410,142.826416 
	C78.334984,142.928284 77.686066,142.788361 77.008728,142.364975 
z"/>
<path fill="#FEFAD7" opacity="1.000000" stroke="none" 
	d="
M82.004257,144.435120 
	C82.534706,144.257339 83.102890,144.363739 83.846230,144.711426 
	C83.361580,144.874908 82.701790,144.797104 82.004257,144.435120 
z"/>
<path fill="#FEFAD7" opacity="1.000000" stroke="none" 
	d="
M95.743591,48.522667 
	C94.917992,48.820641 93.857140,48.906120 92.402863,48.911697 
	C93.175743,48.657921 94.342033,48.484043 95.743591,48.522667 
z"/>
<path fill="#FEFAD7" opacity="1.000000" stroke="none" 
	d="
M109.621666,48.990520 
	C110.000977,49.173611 110.000252,49.346363 109.996552,49.778435 
	C109.221596,49.959225 108.449631,49.880692 107.327507,49.501678 
	C106.977348,49.201199 106.961136,48.973618 106.961136,48.973618 
	C107.721298,48.975807 108.481461,48.977997 109.621666,48.990520 
z"/>
<path fill="#FDF8DD" opacity="1.000000" stroke="none" 
	d="
M122.208084,140.918839 
	C122.051613,140.640930 122.244133,140.393372 122.802597,140.206024 
	C122.915291,140.464447 122.711464,140.692108 122.208084,140.918839 
z"/>
<path fill="#FEFAD7" opacity="1.000000" stroke="none" 
	d="
M70.112396,138.255920 
	C70.309586,138.159882 70.623703,138.301270 71.050896,138.684509 
	C70.852417,138.782013 70.540863,138.637695 70.112396,138.255920 
z"/>
<path fill="#FEFAD7" opacity="1.000000" stroke="none" 
	d="
M59.584023,67.046410 
	C59.818821,67.286476 59.696041,67.555847 59.182373,67.817383 
	C59.015266,67.588593 59.160255,67.343979 59.584023,67.046410 
z"/>
<path fill="#FDF8DD" opacity="1.000000" stroke="none" 
	d="
M106.717361,48.960239 
	C106.961136,48.973618 106.977348,49.201199 106.986382,49.313240 
	C106.995415,49.425278 106.591591,49.525719 106.591591,49.525719 
	C106.591591,49.525719 106.210358,49.358994 106.099594,49.182236 
	C105.988838,49.005482 106.473595,48.946861 106.717361,48.960239 
z"/>
<path fill="#FEFAD7" opacity="1.000000" stroke="none" 
	d="
M67.168243,136.161255 
	C67.385071,136.055283 67.704918,136.216583 68.157440,136.618866 
	C67.950500,136.716080 67.610870,136.572311 67.168243,136.161255 
z"/>
<path fill="#FEFAD7" opacity="1.000000" stroke="none" 
	d="
M120.162476,141.919815 
	C120.020027,141.620346 120.223503,141.397598 120.790985,141.296021 
	C120.876999,141.566589 120.661453,141.759689 120.162476,141.919815 
z"/>
<path fill="#FEFAD7" opacity="1.000000" stroke="none" 
	d="
M63.876900,62.164391 
	C63.949738,62.383972 63.764469,62.670872 63.325584,63.033138 
	C63.254246,62.816238 63.436520,62.523975 63.876900,62.164391 
z"/>
<path fill="#FEFAD7" opacity="1.000000" stroke="none" 
	d="
M61.868828,64.177597 
	C61.956615,64.396660 61.778496,64.700066 61.351166,65.110779 
	C61.268944,64.899368 61.435928,64.580658 61.868828,64.177597 
z"/>
<path fill="#FEFAD7" opacity="1.000000" stroke="none" 
	d="
M62.854652,63.152786 
	C62.938858,63.370728 62.769115,63.669498 62.348282,64.051140 
	C62.265034,63.833874 62.432865,63.533741 62.854652,63.152786 
z"/>
<path fill="#FEFAD7" opacity="1.000000" stroke="none" 
	d="
M64.936966,61.160686 
	C65.008575,61.388004 64.809868,61.681080 64.352356,62.054855 
	C64.284576,61.832523 64.475616,61.529484 64.936966,61.160686 
z"/>
<path fill="#FEFAD7" opacity="1.000000" stroke="none" 
	d="
M69.890320,57.125103 
	C69.942795,57.336945 69.733948,57.609142 69.272629,57.956589 
	C69.223106,57.749714 69.426056,57.467587 69.890320,57.125103 
z"/>
<path fill="#FEFAD7" opacity="1.000000" stroke="none" 
	d="
M66.113281,135.211472 
	C66.319099,135.124802 66.626419,135.276871 67.018806,135.679199 
	C66.807510,135.769714 66.511154,135.609970 66.113281,135.211472 
z"/>
<path fill="#FAFBFB" opacity="1.000000" stroke="none" 
	d="
M143.431549,110.776199 
	C143.306412,110.610718 143.375397,110.266876 143.654724,109.751991 
	C143.785278,109.919907 143.705475,110.258873 143.431549,110.776199 
z"/>
<path fill="#FEFAD7" opacity="1.000000" stroke="none" 
	d="
M57.877083,69.144325 
	C57.972008,69.369232 57.805168,69.677475 57.386200,70.078262 
	C57.294487,69.856430 57.454906,69.542038 57.877083,69.144325 
z"/>
<path fill="#FEFAD7" opacity="1.000000" stroke="none" 
	d="
M54.165134,120.082535 
	C54.386517,120.055290 54.626713,120.274765 54.868122,120.749908 
	C54.540855,120.881516 54.312393,120.656075 54.165134,120.082535 
z"/>
<path fill="#FEFAD7" opacity="1.000000" stroke="none" 
	d="
M59.192986,128.099915 
	C59.416931,128.026596 59.702068,128.222763 60.076912,128.670502 
	C59.862469,128.737839 59.558323,128.553619 59.192986,128.099915 
z"/>
<path fill="#FEFAD7" opacity="1.000000" stroke="none" 
	d="
M72.960236,55.142677 
	C72.994034,55.368473 72.758621,55.629021 72.255951,55.927185 
	C72.222801,55.702347 72.456909,55.439888 72.960236,55.142677 
z"/>
<path fill="#FEFAD7" opacity="1.000000" stroke="none" 
	d="
M61.085831,130.223618 
	C61.279240,130.168015 61.553333,130.347656 61.897385,130.769501 
	C61.623096,130.939392 61.356148,130.755112 61.085831,130.223618 
z"/>
<path fill="#FEFAD7" opacity="1.000000" stroke="none" 
	d="
M63.067089,132.283203 
	C63.337475,132.079041 63.612705,132.240463 63.868393,132.785202 
	C63.604939,132.954956 63.345966,132.781708 63.067089,132.283203 
z"/>
<path fill="#FEFEFE" opacity="1.000000" stroke="none" 
	d="
M120.001923,138.635803 
	C119.562141,138.735596 119.122353,138.835388 118.141228,138.697937 
	C116.734863,138.978760 115.869843,139.496826 115.004822,140.014908 
	C115.004822,140.014908 114.854424,140.391403 114.789291,140.582916 
	C114.338913,140.781311 113.953659,140.788193 113.175797,140.629944 
	C112.520508,140.580841 112.257828,140.696884 111.995155,140.812927 
	C111.550049,140.882111 111.104950,140.951309 110.035599,140.699936 
	C105.941582,140.582657 102.471817,140.785919 99.002045,140.989197 
	C98.245224,140.968140 97.488396,140.947083 96.175468,140.548828 
	C93.019592,138.958557 90.397377,137.790970 87.825096,136.522171 
	C83.516548,134.396942 79.239838,132.207153 74.949730,130.044540 
	C74.949730,130.044540 74.995003,129.997742 74.894180,129.784027 
	C74.510429,129.391754 74.227501,129.213165 73.944580,129.034592 
	C73.944580,129.034592 74.002579,129.005585 73.993095,128.656723 
	C72.985558,125.902534 71.987495,123.497215 71.335815,121.087379 
	C72.134392,121.167450 72.586601,121.252037 73.327164,121.562210 
	C78.405594,120.709351 83.757431,121.095131 86.988762,116.146507 
	C88.677834,113.559799 90.717934,111.202309 92.756111,109.066536 
	C93.583977,111.585442 94.970581,113.867851 94.712784,115.946281 
	C94.483482,117.794930 92.431961,119.417564 91.620720,120.537842 
	C95.455841,120.537842 100.239525,120.537842 105.454323,120.602257 
	C107.913979,120.617561 109.942513,120.568443 112.199539,120.639938 
	C112.692795,120.688751 112.957565,120.616943 113.222343,120.545143 
	C112.780434,120.492676 112.338516,120.440208 111.902763,119.968735 
	C111.415871,114.727539 110.891266,109.908218 110.449776,105.081306 
	C110.323738,103.703255 110.943176,102.024773 110.356186,100.961250 
	C107.785820,96.304138 104.711517,91.922386 102.196167,87.238731 
	C100.720085,84.490234 99.950325,81.362411 98.667122,77.872948 
	C97.279915,77.872948 95.140945,77.872948 93.000000,77.508850 
	C92.749306,76.250023 92.500595,75.355301 92.251892,74.460571 
	C91.950829,74.503838 91.649773,74.547096 91.348717,74.590363 
	C91.252983,75.782494 91.157249,76.974625 91.262054,78.448746 
	C92.918343,80.138542 94.755363,81.318764 95.757401,82.997414 
	C98.611824,87.779243 101.061005,92.800659 103.789627,97.660431 
	C107.809761,104.820427 106.605301,112.175507 104.472481,119.717812 
	C102.797997,118.860458 100.895523,118.145622 100.247002,116.818169 
	C98.538185,113.320427 97.374062,109.556580 96.254791,105.558037 
	C95.963425,104.495972 95.410278,103.774574 94.608192,102.901138 
	C94.233521,102.182610 94.107796,101.616119 93.955437,100.711777 
	C93.543961,99.849640 93.159119,99.325348 92.723190,98.522964 
	C92.108269,97.854759 91.544434,97.464653 91.098335,96.785217 
	C90.877357,95.337883 90.538651,94.179893 90.548248,92.930527 
	C91.825279,89.768677 95.904327,86.374680 89.656372,84.004807 
	C88.656609,83.990486 87.990036,83.978363 87.169662,83.670883 
	C86.365517,82.241875 85.715164,81.108215 85.060791,79.650635 
	C84.979378,78.901718 84.901978,78.476730 85.171082,77.996857 
	C85.797523,77.347168 86.077477,76.752357 86.357437,76.157547 
	C85.028198,75.873192 83.698959,75.588837 82.448029,75.611206 
	C82.306526,76.941322 82.086723,77.964729 81.584679,79.011200 
	C80.871017,79.357162 80.439606,79.680061 79.675819,80.050125 
	C79.526344,81.067810 79.709244,82.038345 79.948059,83.360718 
	C80.062729,83.942703 80.121468,84.172836 80.216049,84.723381 
	C80.201843,85.686127 80.151779,86.328453 79.840080,87.132614 
	C79.387169,87.863388 79.195892,88.432335 78.660309,89.053368 
	C77.876686,90.066032 77.437363,91.026611 76.755127,92.159096 
	C76.343521,92.888451 76.174812,93.445908 75.662079,94.056274 
	C73.030334,96.853416 70.668106,99.542839 68.555305,102.415710 
	C68.309074,102.750519 69.442093,104.099670 69.843384,105.279816 
	C68.931442,106.538834 68.111824,107.496613 67.065964,108.121384 
	C65.559341,107.526459 64.278961,107.264534 62.878136,106.729080 
	C62.224731,105.639442 61.691765,104.823341 61.158802,104.007233 
	C61.094303,103.559700 61.029808,103.112167 61.290710,102.039108 
	C61.752598,98.273880 61.889084,95.134178 62.390915,91.988403 
	C67.072731,91.271034 63.543785,88.636841 63.986519,86.546646 
	C63.979378,84.396324 63.969173,82.674721 63.958969,80.953110 
	C63.958969,80.953110 63.990986,81.005676 64.270584,80.972824 
	C64.677910,80.285843 64.805634,79.631706 64.933365,78.977577 
	C65.097008,78.420929 65.260643,77.864273 66.005928,77.147552 
	C67.055580,76.985779 67.523590,76.984093 68.146561,77.287628 
	C69.895134,78.617302 71.488747,79.641754 72.686821,80.411934 
	C72.004677,78.791359 70.990837,76.382782 69.978134,73.587372 
	C69.947479,72.426682 69.915688,71.652832 69.883896,70.878975 
	C69.883896,70.878975 69.912170,71.009605 70.242004,70.988777 
	C71.046730,70.970764 71.521622,70.973579 72.176262,71.310371 
	C76.900185,74.768654 79.989609,72.046928 82.997192,68.996338 
	C86.786606,67.326500 90.578468,65.662186 94.363525,63.982544 
	C95.201828,63.610546 96.016113,63.184433 97.277382,62.337967 
	C98.435394,61.846169 99.157486,61.799641 100.045700,62.036720 
	C100.806725,62.542336 101.401604,62.764339 102.278015,63.279957 
	C105.419334,63.210510 108.279129,62.847450 111.352142,62.512253 
	C111.565353,62.540119 111.993919,62.575932 111.993919,62.575932 
	C112.445724,62.734165 112.897522,62.892399 113.891029,63.344337 
	C114.970703,63.746323 115.508675,63.854603 116.046646,63.962883 
	C116.046646,63.962887 115.996246,63.994404 116.040321,64.342850 
	C119.503754,69.548225 123.520226,73.394104 130.069778,72.950935 
	C130.069778,72.950935 130.009537,72.995659 130.120789,73.198608 
	C130.512573,73.590042 130.793121,73.778511 131.073669,73.966988 
	C131.073669,73.966988 131.007767,73.992172 131.117035,74.196213 
	C131.500443,74.592758 131.774597,74.785278 132.048737,74.977791 
	C132.048737,74.977791 131.999542,74.999023 132.004807,75.342636 
	C132.006302,76.416557 132.002533,77.146858 131.549118,77.922714 
	C128.224503,77.968262 125.349541,77.968262 123.846855,77.968262 
	C124.808105,80.289429 126.499786,82.559860 126.579918,84.885811 
	C126.905754,94.343269 126.874374,103.820869 126.659134,113.283867 
	C126.602180,115.787613 125.417557,118.265701 124.795090,120.589935 
	C127.050682,120.715240 129.525436,120.852722 132.000183,120.990204 
	C132.333221,123.391579 132.666260,125.792961 133.001648,128.604004 
	C130.029327,131.378082 127.054657,133.742477 124.013779,136.440842 
	C123.947563,136.774826 123.516624,136.952240 123.069519,137.036041 
	C122.341011,137.244507 122.131599,137.444519 121.994179,137.719864 
	C121.994179,137.719864 121.549492,137.920807 121.100830,138.012543 
	C120.375916,138.208679 120.159164,138.385849 120.001923,138.635803 
M116.899788,77.677147 
	C116.803993,77.634735 116.708191,77.592323 116.612396,77.549911 
	C116.721268,77.715370 116.830147,77.880821 117.216759,78.445244 
	C117.585518,78.429008 117.954269,78.412766 118.323029,78.396530 
	C117.896454,78.245148 117.469887,78.093765 116.899788,77.677147 
M116.759048,89.932426 
	C117.859688,87.968071 118.960327,86.003723 120.545479,83.669891 
	C120.964729,82.741631 121.383980,81.813377 121.803230,80.885124 
	C121.314323,80.763794 120.825417,80.642464 120.336510,80.521133 
	C120.181236,81.652069 120.025963,82.782997 119.207008,84.069786 
	C118.116638,86.033470 117.026268,87.997162 115.436371,90.353951 
	C114.798561,91.698593 114.160759,93.043228 113.522949,94.387871 
	C113.896996,94.516678 114.271042,94.645485 114.645088,94.774292 
	C115.127533,93.211983 115.609978,91.649673 116.759048,89.932426 
M86.452499,131.121796 
	C86.159180,131.545166 85.865852,131.968536 85.572525,132.391891 
	C86.156219,132.515320 86.739922,132.638748 88.029381,132.953217 
	C94.792816,136.314148 105.312569,136.417007 107.894562,133.761551 
	C101.290565,132.911362 94.184715,131.996567 86.452499,131.121796 
M83.276268,129.823669 
	C83.383362,129.974609 83.490448,130.125565 83.597534,130.276505 
	C83.577011,130.066513 83.556488,129.856506 83.276268,129.823669 
z"/>
<path fill="#FAFBFB" opacity="1.000000" stroke="none" 
	d="
M82.632881,68.989075 
	C79.989609,72.046928 76.900185,74.768654 72.365524,71.039413 
	C73.879463,68.210976 75.383896,65.987457 76.888336,63.763939 
	C76.974533,63.452507 77.162666,63.225590 77.920120,62.950996 
	C78.592819,62.551186 78.798149,62.283569 79.003479,62.015953 
	C79.420250,61.679619 79.837021,61.343292 80.792847,60.915504 
	C81.557938,60.561302 81.783981,60.298561 82.010017,60.035820 
	C82.476532,59.707500 82.943039,59.379181 83.853043,59.274040 
	C84.870575,59.987350 85.444603,60.477482 86.018639,60.967613 
	C84.317261,62.528343 82.431862,63.946541 81.038261,65.745674 
	C80.669823,66.221336 81.817215,67.871147 82.632881,68.989075 
z"/>
<path fill="#FDF8DD" opacity="1.000000" stroke="none" 
	d="
M70.989433,121.091888 
	C71.987495,123.497215 72.985558,125.902534 73.969589,128.679413 
	C66.362961,122.715828 62.678246,114.295074 61.085148,104.402283 
	C61.691765,104.823341 62.224731,105.639442 63.027260,107.077980 
	C64.333931,109.878815 65.371033,112.057220 66.515877,114.541351 
	C68.078888,116.928680 69.534164,119.010284 70.989433,121.091888 
z"/>
<path fill="#FDF8DD" opacity="1.000000" stroke="none" 
	d="
M75.084274,130.354324 
	C79.239838,132.207153 83.516548,134.396942 87.825096,136.522171 
	C90.397377,137.790970 93.019592,138.958557 95.805511,140.461533 
	C87.852921,139.889938 81.299263,135.764267 75.084274,130.354324 
z"/>
<path fill="#FDF8DD" opacity="1.000000" stroke="none" 
	d="
M99.321533,141.227356 
	C102.471817,140.785919 105.941582,140.582657 109.698586,140.663818 
	C106.537552,141.120682 103.089287,141.293091 99.321533,141.227356 
z"/>
<path fill="#FDF8DD" opacity="1.000000" stroke="none" 
	d="
M86.332733,60.804951 
	C85.444603,60.477482 84.870575,59.987350 84.147179,59.251183 
	C86.774933,57.732220 89.552040,56.459282 92.691925,55.221169 
	C92.356339,56.158340 91.794922,57.232773 90.927666,57.922886 
	C89.612305,58.969582 88.084419,59.749207 86.332733,60.804951 
z"/>
<path fill="#FDF8DD" opacity="1.000000" stroke="none" 
	d="
M76.559059,63.856205 
	C75.383896,65.987457 73.879463,68.210976 72.185776,70.705444 
	C71.521622,70.973579 71.046730,70.970764 70.217102,70.925514 
	C71.984840,68.571541 74.107315,66.260010 76.559059,63.856205 
z"/>
<path fill="#FDF8DD" opacity="1.000000" stroke="none" 
	d="
M62.025566,91.994484 
	C61.889084,95.134178 61.752598,98.273880 61.330292,101.701195 
	C60.931419,98.892471 60.818371,95.796127 61.124916,92.341568 
	C61.544510,91.983345 62.025566,91.994484 62.025566,91.994484 
z"/>
<path fill="#FAFBFB" opacity="1.000000" stroke="none" 
	d="
M62.390911,91.988403 
	C62.025566,91.994484 61.544510,91.983345 61.304070,91.984291 
	C61.054859,91.537125 61.046089,91.089020 61.321857,90.112457 
	C61.645710,89.210106 61.685028,88.836189 61.724342,88.462280 
	C61.724339,88.462280 61.579918,88.216873 61.956734,88.024246 
	C62.883518,87.546196 63.433487,87.260773 63.983456,86.975357 
	C63.543785,88.636841 67.072731,91.271034 62.390911,91.988403 
z"/>
<path fill="#FDF8DD" opacity="1.000000" stroke="none" 
	d="
M67.991600,76.982399 
	C67.523590,76.984093 67.055580,76.985779 66.236938,76.965378 
	C67.017349,75.017540 68.148399,73.091812 69.581680,71.022530 
	C69.915688,71.652832 69.947479,72.426682 69.693069,73.734108 
	C68.935112,75.172585 68.463356,76.077492 67.991600,76.982399 
z"/>
<path fill="#FDF8DD" opacity="1.000000" stroke="none" 
	d="
M63.986519,86.546646 
	C63.433487,87.260773 62.883518,87.546196 62.027294,87.900581 
	C62.275471,85.782204 62.829903,83.594864 63.671654,81.180313 
	C63.969173,82.674721 63.979378,84.396324 63.986519,86.546646 
z"/>
<path fill="#FDF8DD" opacity="1.000000" stroke="none" 
	d="
M64.684998,79.139114 
	C64.805634,79.631706 64.677910,80.285843 64.247482,80.951569 
	C64.108734,80.408997 64.272682,79.854828 64.684998,79.139114 
z"/>
<path fill="#FDF8DD" opacity="1.000000" stroke="none" 
	d="
M78.747498,62.075127 
	C78.798149,62.283569 78.592819,62.551186 78.137901,62.888527 
	C78.089378,62.683601 78.290451,62.408955 78.747498,62.075127 
z"/>
<path fill="#FDF8DD" opacity="1.000000" stroke="none" 
	d="
M112.250969,140.863037 
	C112.257828,140.696884 112.520508,140.580841 112.888565,140.596146 
	C112.831558,140.789368 112.669174,140.851257 112.250969,140.863037 
z"/>
<path fill="#FDF8DD" opacity="1.000000" stroke="none" 
	d="
M81.744331,60.077400 
	C81.783981,60.298561 81.557938,60.561302 81.069305,60.873878 
	C81.030685,60.655468 81.254662,60.387226 81.744331,60.077400 
z"/>
<path fill="#FDF8DD" opacity="1.000000" stroke="none" 
	d="
M61.515823,88.662987 
	C61.685028,88.836189 61.645710,89.210106 61.401409,89.784355 
	C61.233383,89.611031 61.270344,89.237358 61.515823,88.662987 
z"/>
<path fill="#FDF8DD" opacity="1.000000" stroke="none" 
	d="
M74.019844,129.284943 
	C74.227501,129.213165 74.510429,129.391754 74.879646,129.812927 
	C74.675659,129.882126 74.385384,129.708710 74.019844,129.284943 
z"/>
<path fill="#FEFEFE" opacity="1.000000" stroke="none" 
	d="
M141.237030,92.762115 
	C141.427216,93.701805 141.465302,94.397217 141.129074,95.684380 
	C141.024963,99.581978 141.295166,102.887817 141.565369,106.193665 
	C141.328979,107.613907 141.092575,109.034157 140.725952,110.778763 
	C137.663040,112.402199 134.730331,113.701279 131.218094,114.557320 
	C130.726273,104.075401 130.813995,94.036522 131.260406,84.048431 
	C134.688568,86.733849 137.758026,89.368477 140.827484,92.003113 
	C140.913315,92.174690 140.999130,92.346260 141.237030,92.762115 
z"/>
<path fill="#FAFBFB" opacity="1.000000" stroke="none" 
	d="
M140.855774,91.628906 
	C137.758026,89.368477 134.688568,86.733849 131.175095,83.694710 
	C131.153641,81.485855 131.576202,79.681503 131.998779,77.877159 
	C132.002533,77.146858 132.006302,76.416557 132.020645,75.321014 
	C134.982162,80.388748 137.933105,85.821724 140.855774,91.628906 
z"/>
<path fill="#FAFBFB" opacity="1.000000" stroke="none" 
	d="
M129.930573,72.642883 
	C123.520226,73.394104 119.503754,69.548225 116.059967,64.320053 
	C120.620827,66.744148 125.206100,69.539490 129.930573,72.642883 
z"/>
<path fill="#FAFBFB" opacity="1.000000" stroke="none" 
	d="
M111.138931,62.484386 
	C108.279129,62.847450 105.419334,63.210510 102.281479,63.025208 
	C102.014610,62.137260 102.025795,61.797676 102.036972,61.458096 
	C104.109482,61.585045 106.181999,61.711990 108.905472,61.924782 
	C110.083931,62.168545 110.611427,62.326466 111.138931,62.484386 
z"/>
<path fill="#6396BE" opacity="1.000000" stroke="none" 
	d="
M99.879570,61.753113 
	C99.157486,61.799641 98.435394,61.846169 97.358871,61.967670 
	C96.330566,61.435783 95.656700,60.828922 94.473869,59.763691 
	C96.178360,59.395317 97.220657,59.170055 98.627289,58.974823 
	C99.196304,59.669731 99.401001,60.334606 99.793686,61.200451 
	C99.981674,61.401421 99.879570,61.753113 99.879570,61.753113 
z"/>
<path fill="#6396BE" opacity="1.000000" stroke="none" 
	d="
M101.980324,58.886662 
	C104.240891,58.685497 107.003197,58.526436 110.123108,58.611004 
	C107.814491,58.879341 105.148277,58.904057 101.980324,58.886662 
z"/>
<path fill="#6396BE" opacity="1.000000" stroke="none" 
	d="
M111.176529,59.112267 
	C112.477997,58.983025 114.017509,59.169933 115.830719,59.624634 
	C114.541138,59.737755 112.977859,59.583084 111.176529,59.112267 
z"/>
<path fill="#6396BE" opacity="1.000000" stroke="none" 
	d="
M124.168579,63.228279 
	C124.998085,63.380024 125.968933,63.851143 127.136635,64.589493 
	C126.325630,64.420364 125.317780,63.984009 124.168579,63.228279 
z"/>
<path fill="#6396BE" opacity="1.000000" stroke="none" 
	d="
M111.352142,62.512253 
	C110.611427,62.326466 110.083931,62.168545 109.294342,61.913502 
	C109.976082,61.883461 110.919907,61.950550 111.928833,62.296783 
	C111.993919,62.575932 111.565353,62.540119 111.352142,62.512253 
z"/>
<path fill="#ECF9FC" opacity="1.000000" stroke="none" 
	d="
M100.045700,62.036720 
	C99.879570,61.753113 99.981674,61.401421 100.066757,61.239326 
	C100.576561,61.135860 101.001274,61.194485 101.731483,61.355602 
	C102.025795,61.797676 102.014610,62.137260 101.999954,62.731590 
	C101.401604,62.764339 100.806725,62.542336 100.045700,62.036720 
z"/>
<path fill="#6396BE" opacity="1.000000" stroke="none" 
	d="
M116.256081,60.151897 
	C116.982758,60.010361 117.908943,60.180359 119.087723,60.605995 
	C118.378738,60.728901 117.417168,60.596165 116.256081,60.151897 
z"/>
<path fill="#6396BE" opacity="1.000000" stroke="none" 
	d="
M120.177589,61.275543 
	C120.557816,61.193157 121.122154,61.353119 121.888077,61.736534 
	C121.513680,61.812618 120.937691,61.665249 120.177589,61.275543 
z"/>
<path fill="#FAFBFB" opacity="1.000000" stroke="none" 
	d="
M115.915527,63.690544 
	C115.508675,63.854603 114.970703,63.746323 114.245140,63.432491 
	C114.633171,63.290699 115.208786,63.354454 115.915527,63.690544 
z"/>
<path fill="#FAFBFB" opacity="1.000000" stroke="none" 
	d="
M131.962616,74.732300 
	C131.774597,74.785278 131.500443,74.592758 131.129242,74.163109 
	C131.313614,74.112923 131.595047,74.299866 131.962616,74.732300 
z"/>
<path fill="#FAFBFB" opacity="1.000000" stroke="none" 
	d="
M130.984283,73.720787 
	C130.793121,73.778511 130.512573,73.590042 130.132233,73.162888 
	C130.319916,73.107674 130.607407,73.291130 130.984283,73.720787 
z"/>
<path fill="#0E0E0E" opacity="1.000000" stroke="none" 
	d="
M131.549103,77.922714 
	C131.576202,79.681503 131.153641,81.485855 130.816391,83.643921 
	C130.813995,94.036522 130.726273,104.075401 130.806213,114.557457 
	C131.598984,116.729958 132.225815,118.458672 132.846176,120.189713 
	C132.899582,120.338715 132.984726,120.556358 132.920639,120.646286 
	C132.847656,120.748703 132.623703,120.743523 132.232773,120.887657 
	C129.525436,120.852722 127.050682,120.715240 124.795090,120.589935 
	C125.417557,118.265701 126.602180,115.787613 126.659134,113.283867 
	C126.874374,103.820869 126.905754,94.343269 126.579918,84.885811 
	C126.499786,82.559860 124.808105,80.289429 123.846855,77.968262 
	C125.349541,77.968262 128.224503,77.968262 131.549103,77.922714 
z"/>
<path fill="#FAFBFB" opacity="1.000000" stroke="none" 
	d="
M141.696838,105.815872 
	C141.295166,102.887817 141.024963,99.581978 141.136337,96.036766 
	C141.621368,99.010963 141.724838,102.224518 141.696838,105.815872 
z"/>
<path fill="#FDF8DD" opacity="1.000000" stroke="none" 
	d="
M115.341789,140.020615 
	C115.869843,139.496826 116.734863,138.978760 117.802734,138.711487 
	C117.229980,139.316971 116.454369,139.671646 115.341789,140.020615 
z"/>
<path fill="#FDF8DD" opacity="1.000000" stroke="none" 
	d="
M120.229446,138.649506 
	C120.159164,138.385849 120.375916,138.208679 120.863266,138.068146 
	C120.979988,138.351471 120.774193,138.561859 120.229446,138.649506 
z"/>
<path fill="#FDF8DD" opacity="1.000000" stroke="none" 
	d="
M122.226227,137.712952 
	C122.131599,137.444519 122.341011,137.244507 122.839539,137.073547 
	C122.965355,137.348923 122.765892,137.575180 122.226227,137.712952 
z"/>
<path fill="#0E0F0F" opacity="1.000000" stroke="none" 
	d="
M104.816040,119.581100 
	C106.605301,112.175507 107.809761,104.820427 103.789627,97.660431 
	C101.061005,92.800659 98.611824,87.779243 95.757401,82.997414 
	C94.755363,81.318764 92.918343,80.138542 91.594551,78.434410 
	C92.151665,78.049713 92.576828,77.961327 93.001984,77.872948 
	C95.140945,77.872948 97.279915,77.872948 98.667122,77.872948 
	C99.950325,81.362411 100.720085,84.490234 102.196167,87.238731 
	C104.711517,91.922386 107.785820,96.304138 110.356186,100.961250 
	C110.943176,102.024773 110.323738,103.703255 110.449776,105.081306 
	C110.891266,109.908218 111.415871,114.727539 111.903610,120.011414 
	C111.898293,120.473083 111.971046,120.519333 111.971046,120.519333 
	C109.942513,120.568443 107.913979,120.617561 105.435410,120.355957 
	C104.985367,120.045235 104.816040,119.581100 104.816040,119.581100 
z"/>
<path fill="#FEEEED" opacity="1.000000" stroke="none" 
	d="
M92.599503,108.741302 
	C90.717934,111.202309 88.677834,113.559799 86.988762,116.146507 
	C83.757431,121.095131 78.405594,120.709351 73.468338,121.211105 
	C74.473969,120.267097 75.626793,119.899788 76.172394,119.725945 
	C74.651276,118.732285 72.939888,117.614326 71.653610,116.381912 
	C74.657997,115.628487 77.237282,114.989510 80.678871,114.136917 
	C81.185501,111.510307 81.679314,108.172966 82.537071,104.931946 
	C82.830513,103.823212 84.036507,102.955986 84.850922,102.295486 
	C85.841728,104.070557 86.807190,105.528564 87.573997,106.686577 
	C88.843773,105.657104 89.818779,104.866623 90.877007,104.439476 
	C91.506653,106.115639 92.053078,107.428474 92.599503,108.741302 
M86.555847,109.545425 
	C86.494682,109.027214 86.433525,108.509003 86.372360,107.990791 
	C86.062943,108.055435 85.753525,108.120079 85.444107,108.184723 
	C85.620918,108.550369 85.797729,108.916016 86.555847,109.545425 
z"/>
<path fill="#1C1A1A" opacity="1.000000" stroke="none" 
	d="
M92.756111,109.066536 
	C92.053078,107.428474 91.506653,106.115639 90.881439,104.070236 
	C91.130287,102.470131 91.457939,101.602600 92.149483,100.813660 
	C93.002945,100.944710 93.492500,100.997177 93.982063,101.049637 
	C94.107796,101.616119 94.233521,102.182610 94.633636,103.223907 
	C95.269684,104.432045 95.631355,105.165375 95.993019,105.898697 
	C97.374062,109.556580 98.538185,113.320427 100.247002,116.818169 
	C100.895523,118.145622 102.797997,118.860458 104.472481,119.717812 
	C104.816040,119.581100 104.985367,120.045235 105.004288,120.291534 
	C100.239525,120.537842 95.455841,120.537842 91.620720,120.537842 
	C92.431961,119.417564 94.483482,117.794930 94.712784,115.946281 
	C94.970581,113.867851 93.583977,111.585442 92.756111,109.066536 
z"/>
<path fill="#D52723" opacity="1.000000" stroke="none" 
	d="
M85.064819,79.974548 
	C85.715164,81.108215 86.365517,82.241875 87.195267,83.965729 
	C87.827217,85.409660 88.279762,86.263382 88.784172,87.508423 
	C88.980255,88.940582 89.124474,89.981438 89.193436,91.417175 
	C88.759880,93.271088 88.401573,94.730110 87.879570,95.933350 
	C87.159523,95.464836 86.603180,95.252113 86.000320,94.829216 
	C85.953819,94.619041 85.909248,94.190826 85.899300,93.859810 
	C84.942352,92.689911 83.995361,91.851028 82.941452,90.865028 
	C82.834534,90.717918 82.847313,90.354424 82.903183,90.020714 
	C82.976700,89.462128 82.994354,89.237244 83.355896,88.946259 
	C84.167511,87.653076 84.635231,86.426010 85.102951,85.198936 
	C84.699829,85.094185 84.296700,84.989433 83.893570,84.884682 
	C83.591583,86.252342 83.289589,87.620003 82.719879,88.996094 
	C82.273621,89.013420 82.095093,89.022316 81.675476,88.911392 
	C81.245613,88.304153 81.056831,87.816727 80.949471,86.950508 
	C81.692390,84.667603 82.248116,82.715012 83.084244,80.890945 
	C83.314598,80.388443 84.381676,80.269493 85.064819,79.974548 
z"/>
<path fill="#CF4E4D" opacity="1.000000" stroke="none" 
	d="
M86.046829,95.039391 
	C86.603180,95.252113 87.159523,95.464836 87.886391,96.260078 
	C89.031471,96.919914 90.006035,96.997231 90.980598,97.074539 
	C91.544434,97.464653 92.108269,97.854759 92.441719,98.510086 
	C92.069420,99.428558 91.927505,100.081810 91.785583,100.735062 
	C91.457939,101.602600 91.130287,102.470131 90.798218,103.706909 
	C89.818779,104.866623 88.843773,105.657104 87.573997,106.686577 
	C86.807190,105.528564 85.841728,104.070557 84.984634,101.919983 
	C85.093849,100.166733 85.094688,99.106033 85.389618,97.874702 
	C85.804756,96.815842 85.925789,95.927612 86.046829,95.039391 
z"/>
<path fill="#719EC2" opacity="1.000000" stroke="none" 
	d="
M87.078873,131.081772 
	C94.184715,131.996567 101.290565,132.911362 107.894562,133.761551 
	C105.312569,136.417007 94.792816,136.314148 87.613892,132.581619 
	C87.158562,131.833939 87.118721,131.457855 87.078873,131.081772 
z"/>
<path fill="#CD2D27" opacity="1.000000" stroke="none" 
	d="
M67.292198,108.454391 
	C68.111824,107.496613 68.931442,106.538834 70.151428,105.154251 
	C72.031120,102.806282 73.510468,100.885124 75.213127,98.872543 
	C75.715668,98.580215 75.873337,98.308708 75.942070,97.982010 
	C75.974678,97.997421 75.966240,97.925789 76.324898,98.037170 
	C76.902946,99.106728 77.122345,100.064903 77.209213,101.265236 
	C77.056999,101.690422 77.037308,101.873451 76.820015,102.139679 
	C76.347786,102.403831 76.248154,102.654388 76.072838,103.213959 
	C74.098465,105.589714 72.374786,107.726051 70.419579,110.162056 
	C70.102562,111.981728 70.017075,113.501740 69.675903,114.767204 
	C68.755806,112.671982 68.091377,110.831291 67.395386,108.856018 
	C67.363831,108.721436 67.292198,108.454391 67.292198,108.454391 
z"/>
<path fill="#E41B16" opacity="1.000000" stroke="none" 
	d="
M67.426956,108.990608 
	C68.091377,110.831291 68.755806,112.671982 69.773041,114.993546 
	C70.489044,115.803223 70.852249,116.132004 71.234756,116.461273 
	C71.254066,116.461761 71.228500,116.496368 71.228500,116.496368 
	C72.939888,117.614326 74.651276,118.732285 76.172394,119.725945 
	C75.626793,119.899788 74.473969,120.267097 73.179977,120.985519 
	C72.586601,121.252037 72.134392,121.167450 71.335815,121.087379 
	C69.534164,119.010284 68.078888,116.928680 66.697037,114.401466 
	C66.583717,113.448761 66.396988,112.941658 66.398376,112.254196 
	C66.605568,111.734406 66.624657,111.394981 66.774048,110.705948 
	C67.078552,109.901085 67.252754,109.445847 67.426956,108.990608 
z"/>
<path fill="#FAFBFB" opacity="1.000000" stroke="none" 
	d="
M74.989815,98.963966 
	C73.510468,100.885124 72.031120,102.806282 70.243736,104.853004 
	C69.442093,104.099670 68.309074,102.750519 68.555305,102.415710 
	C70.668106,99.542839 73.030334,96.853416 75.660690,94.448441 
	C75.990974,95.833725 75.978607,96.879761 75.966240,97.925789 
	C75.966240,97.925789 75.974678,97.997421 75.729553,98.086609 
	C75.219803,98.375916 75.054939,98.638634 74.989815,98.963966 
z"/>
<path fill="#FEEEED" opacity="1.000000" stroke="none" 
	d="
M76.324898,98.037170 
	C75.978607,96.879761 75.990974,95.833725 76.004723,94.395523 
	C76.174812,93.445908 76.343521,92.888451 77.130524,92.161423 
	C78.499512,91.994873 79.250214,91.997894 80.000458,92.000458 
	C80.000000,92.000000 79.999084,91.999001 79.996918,92.421600 
	C79.110413,95.570488 78.226074,98.296783 77.341736,101.023079 
	C77.122345,100.064903 76.902946,99.106728 76.324898,98.037170 
z"/>
<path fill="#FEEEED" opacity="1.000000" stroke="none" 
	d="
M86.000320,94.829216 
	C85.925789,95.927612 85.804756,96.815842 85.065994,97.719650 
	C82.965218,95.823158 81.482147,93.911079 79.999084,91.999001 
	C79.999084,91.999001 80.000000,92.000000 79.978775,91.680931 
	C79.639908,90.575005 79.322258,89.788139 79.004616,89.001282 
	C79.195892,88.432335 79.387169,87.863388 80.040054,87.204315 
	C80.501671,87.114182 80.868057,87.329308 80.868057,87.329308 
	C81.056831,87.816727 81.245613,88.304153 81.745323,89.184914 
	C82.319939,89.836983 82.583626,90.095703 82.847313,90.354424 
	C82.847313,90.354424 82.834534,90.717918 82.951790,91.212234 
	C84.015785,92.534637 84.962517,93.362732 85.909248,94.190826 
	C85.909248,94.190826 85.953819,94.619041 86.000320,94.829216 
z"/>
<path fill="#FAFBFB" opacity="1.000000" stroke="none" 
	d="
M89.268692,91.022285 
	C89.124474,89.981438 88.980255,88.940582 89.087967,87.316658 
	C89.556442,85.824722 89.772995,84.915855 89.989548,84.006996 
	C95.904327,86.374680 91.825279,89.768677 90.481796,92.652702 
	C89.800911,91.984932 89.534805,91.503609 89.268692,91.022285 
z"/>
<path fill="#CC2D2A" opacity="1.000000" stroke="none" 
	d="
M80.949471,86.950508 
	C80.868057,87.329308 80.501671,87.114182 80.301697,87.042480 
	C80.151779,86.328453 80.201843,85.686127 80.455368,84.436409 
	C81.061531,82.215385 81.464226,80.601761 81.866913,78.988129 
	C82.086723,77.964729 82.306526,76.941322 82.615204,75.887100 
	C83.410912,76.588104 84.117752,77.319916 84.824585,78.051735 
	C84.901978,78.476730 84.979378,78.901718 85.060791,79.650635 
	C84.381676,80.269493 83.314598,80.388443 83.084244,80.890945 
	C82.248116,82.715012 81.692390,84.667603 80.949471,86.950508 
z"/>
<path fill="#FAFBFB" opacity="1.000000" stroke="none" 
	d="
M68.146561,77.287628 
	C68.463356,76.077492 68.935112,75.172585 69.691933,74.120941 
	C70.990837,76.382782 72.004677,78.791359 72.686821,80.411934 
	C71.488747,79.641754 69.895134,78.617302 68.146561,77.287628 
z"/>
<path fill="#FAFBFB" opacity="1.000000" stroke="none" 
	d="
M67.395393,108.856018 
	C67.252754,109.445847 67.078552,109.901085 66.593414,110.890396 
	C66.258408,111.761169 66.234329,112.097870 66.210258,112.434563 
	C66.396988,112.941658 66.583717,113.448761 66.589294,114.095741 
	C65.371033,112.057220 64.333931,109.878815 63.147701,107.351509 
	C64.278961,107.264534 65.559341,107.526459 67.065964,108.121384 
	C67.292198,108.454391 67.363831,108.721436 67.395393,108.856018 
z"/>
<path fill="#FEEEED" opacity="1.000000" stroke="none" 
	d="
M89.193443,91.417175 
	C89.534805,91.503609 89.800911,91.984932 90.133476,92.744080 
	C90.538651,94.179893 90.877357,95.337883 91.098335,96.785210 
	C90.006035,96.997231 89.031471,96.919914 88.050087,96.515869 
	C88.401573,94.730110 88.759880,93.271088 89.193443,91.417175 
z"/>
<path fill="#FAFBFB" opacity="1.000000" stroke="none" 
	d="
M115.935898,89.960854 
	C117.026268,87.997162 118.116638,86.033470 119.586647,84.022865 
	C119.966286,83.975945 120.060966,84.039368 120.060966,84.039368 
	C118.960327,86.003723 117.859688,87.968071 116.387955,89.976593 
	C116.016861,90.020767 115.935905,89.960854 115.935898,89.960854 
z"/>
<path fill="#FEEEED" opacity="1.000000" stroke="none" 
	d="
M85.171082,77.996857 
	C84.117752,77.319916 83.410912,76.588104 82.536896,75.580383 
	C83.698959,75.588837 85.028198,75.873192 86.357437,76.157547 
	C86.077477,76.752357 85.797523,77.347168 85.171082,77.996857 
z"/>
<path fill="#FEEEED" opacity="1.000000" stroke="none" 
	d="
M81.584671,79.011200 
	C81.464226,80.601761 81.061531,82.215385 80.419525,84.115990 
	C80.121468,84.172836 80.062729,83.942703 79.985748,82.986160 
	C79.981071,81.507484 79.994629,80.755219 80.008194,80.002960 
	C80.439606,79.680061 80.871017,79.357162 81.584671,79.011200 
z"/>
<path fill="#FAFBFB" opacity="1.000000" stroke="none" 
	d="
M78.660309,89.053368 
	C79.322258,89.788139 79.639908,90.575005 79.979233,91.681389 
	C79.250214,91.997894 78.499512,91.994873 77.373421,91.989517 
	C77.437363,91.026611 77.876686,90.066032 78.660309,89.053368 
z"/>
<path fill="#FAFBFB" opacity="1.000000" stroke="none" 
	d="
M93.000000,77.508850 
	C92.576828,77.961327 92.151665,78.049713 91.394012,78.152420 
	C91.157249,76.974625 91.252983,75.782494 91.348717,74.590363 
	C91.649773,74.547096 91.950829,74.503838 92.251892,74.460571 
	C92.500595,75.355301 92.749306,76.250023 93.000000,77.508850 
z"/>
<path fill="#FAFBFB" opacity="1.000000" stroke="none" 
	d="
M119.918488,83.944939 
	C120.025963,82.782997 120.181236,81.652069 120.336510,80.521133 
	C120.825417,80.642464 121.314323,80.763794 121.803230,80.885124 
	C121.383980,81.813377 120.964729,82.741631 120.303223,83.854630 
	C120.060966,84.039368 119.966286,83.975945 119.918488,83.944939 
z"/>
<path fill="#FEEEED" opacity="1.000000" stroke="none" 
	d="
M89.656372,84.004807 
	C89.772995,84.915855 89.556442,85.824722 89.036102,86.925339 
	C88.279762,86.263382 87.827217,85.409660 87.349060,84.261086 
	C87.990036,83.978363 88.656609,83.990486 89.656372,84.004807 
z"/>
<path fill="#FAFBFB" opacity="1.000000" stroke="none" 
	d="
M116.054642,90.054062 
	C115.609978,91.649673 115.127533,93.211983 114.645088,94.774292 
	C114.271042,94.645485 113.896996,94.516678 113.522949,94.387871 
	C114.160759,93.043228 114.798561,91.698593 115.686142,90.157402 
	C115.935905,89.960854 116.016861,90.020767 116.054642,90.054062 
z"/>
<path fill="#FAFBFB" opacity="1.000000" stroke="none" 
	d="
M79.675812,80.050125 
	C79.994629,80.755219 79.981071,81.507484 79.929825,82.634308 
	C79.709244,82.038345 79.526344,81.067810 79.675812,80.050125 
z"/>
<path fill="#FAFBFB" opacity="1.000000" stroke="none" 
	d="
M92.149490,100.813660 
	C91.927505,100.081810 92.069420,99.428558 92.492798,98.788185 
	C93.159119,99.325348 93.543961,99.849640 93.955437,100.711777 
	C93.492500,100.997177 93.002945,100.944710 92.149490,100.813660 
z"/>
<path fill="#FAFBFB" opacity="1.000000" stroke="none" 
	d="
M96.254791,105.558037 
	C95.631355,105.165375 95.269684,104.432045 94.882576,103.375946 
	C95.410278,103.774574 95.963425,104.495972 96.254791,105.558037 
z"/>
<path fill="#FDF8DD" opacity="1.000000" stroke="none" 
	d="
M86.765686,131.101776 
	C87.118721,131.457855 87.158562,131.833939 87.261017,132.486099 
	C86.739922,132.638748 86.156219,132.515320 85.572525,132.391891 
	C85.865852,131.968536 86.159180,131.545166 86.765686,131.101776 
z"/>
<path fill="#FDF8DD" opacity="1.000000" stroke="none" 
	d="
M83.406120,129.735092 
	C83.556488,129.856506 83.577011,130.066513 83.597534,130.276505 
	C83.490448,130.125565 83.383362,129.974609 83.406120,129.735092 
z"/>
<path fill="#1C1A1A" opacity="1.000000" stroke="none" 
	d="
M112.199539,120.639946 
	C111.971046,120.519333 111.898293,120.473083 111.897446,120.430405 
	C112.338516,120.440208 112.780434,120.492676 113.222343,120.545143 
	C112.957565,120.616943 112.692795,120.688751 112.199539,120.639946 
z"/>
<path fill="#FAFBFB" opacity="1.000000" stroke="none" 
	d="
M117.043312,77.942375 
	C117.469887,78.093765 117.896454,78.245148 118.323029,78.396530 
	C117.954269,78.412766 117.585518,78.429008 117.105850,78.221680 
	C116.994942,77.998116 117.043312,77.942375 117.043312,77.942375 
z"/>
<path fill="#FAFBFB" opacity="1.000000" stroke="none" 
	d="
M116.966980,78.022202 
	C116.830147,77.880821 116.721268,77.715370 116.612396,77.549911 
	C116.708191,77.592323 116.803993,77.634735 116.971550,77.809761 
	C117.043312,77.942375 116.994942,77.998116 116.966980,78.022202 
z"/>
<path fill="#FAFBFB" opacity="1.000000" stroke="none" 
	d="
M79.996918,92.421600 
	C81.482147,93.911079 82.965218,95.823158 84.771896,97.890289 
	C85.094688,99.106033 85.093849,100.166733 84.959290,101.602921 
	C84.036507,102.955986 82.830513,103.823212 82.537071,104.931946 
	C81.679314,108.172966 81.185501,111.510307 80.678871,114.136917 
	C77.237282,114.989510 74.657997,115.628487 71.653610,116.381912 
	C71.228500,116.496368 71.254066,116.461761 71.457489,116.048264 
	C71.324310,113.710632 70.987709,111.786514 70.651108,109.862389 
	C72.374786,107.726051 74.098465,105.589714 76.247620,103.112625 
	C76.880310,102.577911 76.995148,102.339447 77.017609,102.056488 
	C77.037308,101.873451 77.056999,101.690422 77.209206,101.265236 
	C78.226074,98.296783 79.110413,95.570488 79.996918,92.421600 
z"/>
<path fill="#F75556" opacity="1.000000" stroke="none" 
	d="
M86.265198,109.413544 
	C85.797729,108.916016 85.620918,108.550369 85.444107,108.184723 
	C85.753525,108.120079 86.062943,108.055435 86.372360,107.990791 
	C86.433525,108.509003 86.494682,109.027214 86.265198,109.413544 
z"/>
<path fill="#CC2D2A" opacity="1.000000" stroke="none" 
	d="
M82.987610,88.987663 
	C83.289589,87.620003 83.591583,86.252342 83.893570,84.884682 
	C84.296700,84.989433 84.699829,85.094185 85.102951,85.198936 
	C84.635231,86.426010 84.167511,87.653076 83.349792,88.939972 
	C82.999794,88.999794 82.987610,88.987663 82.987610,88.987663 
z"/>
<path fill="#CC2D2A" opacity="1.000000" stroke="none" 
	d="
M85.899300,93.859810 
	C84.962517,93.362732 84.015785,92.534637 83.058701,91.359344 
	C83.995361,91.851028 84.942352,92.689911 85.899300,93.859810 
z"/>
<path fill="#CC2D2A" opacity="1.000000" stroke="none" 
	d="
M82.903183,90.020714 
	C82.583626,90.095703 82.319939,89.836983 81.986404,89.304733 
	C82.095093,89.022316 82.273621,89.013420 82.719879,88.996094 
	C82.987610,88.987663 82.999794,88.999794 83.005905,89.006081 
	C82.994354,89.237244 82.976700,89.462128 82.903183,90.020714 
z"/>
<path fill="#FEEEED" opacity="1.000000" stroke="none" 
	d="
M70.419579,110.162056 
	C70.987709,111.786514 71.324310,113.710632 71.438187,116.047775 
	C70.852249,116.132004 70.489044,115.803223 70.028709,115.248093 
	C70.017075,113.501740 70.102562,111.981728 70.419579,110.162056 
z"/>
<path fill="#FEEEED" opacity="1.000000" stroke="none" 
	d="
M75.213127,98.872543 
	C75.054939,98.638634 75.219803,98.375916 75.696945,98.071198 
	C75.873337,98.308708 75.715668,98.580215 75.213127,98.872543 
z"/>
<path fill="#FEEEED" opacity="1.000000" stroke="none" 
	d="
M76.820015,102.139679 
	C76.995148,102.339447 76.880310,102.577911 76.498322,102.873199 
	C76.248154,102.654388 76.347786,102.403831 76.820015,102.139679 
z"/>
<path fill="#FDF8DD" opacity="1.000000" stroke="none" 
	d="
M66.398376,112.254196 
	C66.234329,112.097870 66.258408,111.761169 66.463104,111.240021 
	C66.624657,111.394981 66.605568,111.734406 66.398376,112.254196 
z"/>
</svg>